<svg width="232" height="42" viewBox="0 0 232 42" fill="none" xmlns="http://www.w3.org/2000/svg">
<path d="M7.15 40.1C5.15 40.1 0.35 39.3 0.35 36.1C0.35 34.3 2.5 32.7 5.1 32.7C7.15 32.7 10.15 33.65 14 35.55C15.15 34.8 16.3 33.75 17.4 32.3C18.5 30.85 19.35 29.55 20 28.3C20.65 27.05 21.5 25.35 22.5 23.2L22.45 23.25C22.9 22.2 23.45 20.95 24.15 19.5V19.55L25.85 15.85C25.95 15.65 26.15 15.15 26.5 14.4C26.85 13.6 27.1 13.05 27.2 12.8C27.35 12.55 27.55 12.05 27.9 11.35L28.65 9.85C29 9.2 29.75 7.8 30.15 7.2C30.95 6.15 31.8 5.1 32.6 4.5C30.6 3.85 28.65 3.55 26.8 3.55C21.05 3.55 15.95 5.15 12.6 7.55C7.45 11.25 4.95 16.4 4.95 20.75C4.95 24.6 6.85 27.8 10.2 29.2C12.1 29.95 11.25 32.4 9.25 31.75C4.7 30.1 2.2 25.75 2.2 20.7C2.2 17.35 3.4 13.75 6.05 10.3C9.85 5.2 16.85 0.999998 26.65 0.999998C31.15 0.999998 35.05 2.2 38.35 4.6C41.65 7 43.3 10 43.3 13.65C43.3 17.7 41.1 21.1 37.75 23.05C39.05 24.55 39.7 26.3 39.7 28.35C39.7 31.65 38.2 34.65 35.15 37.4C32.15 40.15 28.6 41.5 24.55 41.5C21.7 41.5 18.25 40.55 14.2 38.6C12.25 39.55 9.9 40.05 7.15 40.1ZM30.4 25.25C28.25 25.25 26.55 24 26.55 22.65C26.55 21 28.35 19.9 30.4 19.9C32.25 19.9 33.95 20.35 35.6 21.25C38.55 19.8 40.5 17 40.5 13.65C40.5 10.5 38.45 7.5 35.05 5.55C33.05 6.35 31.3 9.9 28.75 15.7C28.6 16.15 28.4 16.45 28.3 16.8L24.95 24.1C23.9 26.35 23.05 28.1 22.4 29.35C21.2 31.75 19 35.1 16.8 36.9C19.65 38.15 22.15 38.75 24.4 38.75C27.85 38.75 30.75 37.7 33.2 35.55C35.65 33.4 36.85 31 36.85 28.35C36.85 26.65 36.35 25.35 35.3 24.4C33.8 24.95 32.15 25.25 30.4 25.25ZM7.15 37.4C8.4 37.4 9.65 37.25 10.9 36.9C10.75 36.85 9.9 36.5 9.7 36.35C9.5 36.3 8.8 35.95 8.55 35.9C7.5 35.65 6.45 35.3 5.15 35.3C3.7 35.35 3 35.65 3 36.1C3 36.95 4.4 37.4 7.15 37.4ZM28.95 22.5C28.8 22.65 28.95 22.8 29.4 22.95C29.75 23.1 30.1 23.15 30.45 23.2C31.45 23.25 32.35 23.1 33.1 22.75C32.65 22.4 31.9 22.2 30.95 22.15C30 22.05 29.35 22.15 28.95 22.5ZM53.0086 36.6C51.1586 36.6 49.9586 36 49.3086 34.85C48.2086 36 46.9086 36.6 45.4586 36.6C42.7086 36.6 41.0586 35.25 41.0586 32.8C41.0586 31.95 41.3086 31 41.7586 30L45.5086 22.1C47.2586 18.45 49.4086 16.65 51.9586 16.65C53.3086 16.65 54.7086 17.25 55.1586 18.25C55.4586 17.45 56.0086 17.1 56.7586 17.15C57.4086 17.25 57.7086 17.6 57.7086 18.25C57.7086 18.4 57.6586 18.6 57.6086 18.8L52.0586 31.05C51.7086 31.75 51.5586 32.35 51.5586 32.85C51.5586 33.6 52.0586 34 53.0086 34C54.0586 34 54.9586 33.5 55.7586 32.35C56.5586 31.2 56.5586 31.05 57.1086 30.05C57.5086 29.3 58.0586 29.1 58.8086 29.4C59.5586 29.65 59.8086 30.2 59.5086 31C58.9586 32.35 58.0586 33.6 56.9086 34.8C55.7586 36 54.4586 36.6 53.0086 36.6ZM49.2586 30.6L53.2086 22.2C53.8586 20.9 53.8586 19.25 51.9586 19.25C50.9086 19.25 49.9586 19.8 49.1586 21C48.4086 22.2 48.4086 22.25 47.8086 23.45L44.2086 31.15C43.4586 32.4 43.8086 34 45.4586 34C47.1086 34 48.5086 32.25 49.2586 30.6ZM67.1406 36.6C63.3406 36.6 61.7906 34 61.7906 30.65C61.7906 29.8 61.9406 28.8 62.1906 27.65C62.4406 26.7 62.4406 26.75 63.1906 26.6C64.4906 26.45 65.8406 25.75 67.2406 24.5C68.6906 23.25 69.3906 21.95 69.3906 20.6C69.3906 19.7 68.9406 19.25 67.9906 19.25C66.3406 19.25 64.3906 20.45 63.3906 22.6L59.5406 31.05C58.7906 32.8 56.4906 36.6 52.9406 36.6C51.1906 36.6 51.4406 34 52.9406 34C54.4906 34 55.8406 32.7 57.0906 30.05L67.8906 6.55C68.7406 4.75 71.3906 5.45 70.3406 7.6L65.2406 18.05C66.4406 17.1 67.5406 16.65 68.5906 16.65C70.8406 16.65 72.2906 18.1 72.2906 20.5C72.2906 22.15 71.5906 23.8 70.1406 25.4C68.7406 26.95 67.1406 28.15 65.3406 28.9C64.7906 29.15 64.5406 29.65 64.5406 30.4C64.5406 32.8 65.3906 34 67.1406 34C67.7906 34 68.4906 33.7 69.1906 33.15C70.5906 32 71.1906 31.05 71.6406 30.05C72.0406 29.3 72.5906 29.1 73.3406 29.4C74.0906 29.65 74.3406 30.2 74.0406 31C73.4906 32.25 72.5906 33.5 71.2406 34.75C69.9406 36 68.5906 36.6 67.1406 36.6ZM81.3938 16.65C83.8438 16.65 85.2438 17.9 85.2438 20.05C85.2438 20.8 85.0938 21.5 84.8438 22.2C83.3438 26.15 80.9938 28.15 77.7938 28.15C77.4938 28.15 76.9938 28.1 76.3438 27.95C75.6938 27.75 75.2438 27.95 74.9938 28.55C74.4438 29.9 74.1938 30.9 74.1938 31.5C74.1938 33.1 75.1938 33.95 77.1938 34C79.7938 34 82.1438 31.9 83.1938 29.95C84.1438 28.15 86.3938 29.3 85.5438 31C84.7938 32.5 83.6938 33.8 82.1438 34.95C80.5938 36.05 78.9438 36.6 77.1938 36.6C73.7437 36.6 71.3437 34.9 71.3437 31.75C71.3437 30.7 71.6937 29.35 72.4438 27.8L75.1438 22.1C76.8438 18.45 78.9438 16.65 81.3938 16.65ZM81.9438 21.95C82.6438 20.3 82.4438 19.4 81.3938 19.25C80.0438 19.05 78.8438 20.2 77.7938 22.65L77.1438 24.1C76.7938 24.95 77.1438 25.4 78.1438 25.4C79.6938 25.4 80.9938 24.25 81.9438 21.95ZM104.265 7.6L93.4648 31.05C92.9648 32.25 92.5148 34 94.4148 34C95.4648 34 96.3648 33.5 97.1648 32.35C97.9648 31.2 97.9648 31.05 98.5148 30.05C98.9148 29.3 99.4648 29.1 100.215 29.4C100.965 29.65 101.215 30.2 100.915 31C100.365 32.35 99.4648 33.6 98.3148 34.8C97.1648 36 95.8648 36.6 94.4148 36.6C93.5148 36.6 92.7648 36.45 92.1648 36.15V36.2C91.8648 36.05 91.6148 35.85 91.3648 35.7C91.0648 35.45 90.8648 35.2 90.7148 34.85C89.6148 36 88.3148 36.6 86.8648 36.6C84.1148 36.6 82.4648 35.25 82.4648 32.8C82.4648 31.95 82.7148 31 83.1648 30L86.9148 22.1C88.6648 18.45 90.8148 16.65 93.3648 16.65C94.8648 16.65 95.9148 17.15 96.4648 18.1L101.815 6.55C102.665 4.75 105.315 5.45 104.265 7.6ZM91.0148 29.95L94.3148 22.8L94.8148 21.7C95.3648 20.55 94.9148 19.25 93.3648 19.25C92.3148 19.25 91.3648 19.8 90.5648 21C89.8148 22.2 89.8148 22.25 89.2148 23.45L85.6148 31.15C84.8648 32.4 85.2148 34 86.8648 34C88.4148 34 89.8148 32.65 91.0148 29.95ZM145.368 1.25C146.268 1.05 146.818 1.3 147.068 2C147.318 2.65 147.068 3.2 146.318 3.55C146.118 3.65 145.868 3.7 145.568 3.75C144.968 3.9 144.418 4.15 143.868 4.45C147.768 7.3 149.718 10.95 149.718 15.4C149.718 19.25 148.268 22.45 145.418 25.1C142.568 27.7 139.418 29 135.868 29C133.618 29 131.218 28.2 130.418 27C129.268 29.4 128.268 31.35 127.368 32.85C126.468 34.35 125.318 35.85 123.968 37.3C121.318 40.25 117.768 41.6 113.168 41.65C111.468 41.6 109.868 41.2 108.418 40.35C106.968 39.55 106.118 38.55 105.768 37.35C105.518 35.85 105.968 35.1 107.068 35.1C107.618 35.1 108.218 35.55 108.418 36.3C108.818 37.7 110.618 38.95 112.968 38.95C116.368 38.95 119.318 37.7 121.268 36.15C122.218 35.4 123.218 34.3 124.168 32.85C125.168 31.4 125.968 30.1 126.518 29C127.068 27.85 127.818 26.3 128.718 24.35L132.768 15.5C134.918 10.7 137.068 7.15 139.268 4.8C136.718 3.65 134.118 3.1 131.418 3.1C126.368 3.1 121.868 4.6 118.918 6.8C114.468 10.2 112.268 14.9 112.268 19.1C112.268 23.35 114.368 27.05 118.318 28.7C119.018 29.05 119.368 29.5 119.368 29.95C119.368 30.7 118.818 31.25 118.018 31.25C117.768 31.25 117.518 31.2 117.318 31.1L117.368 31.15C112.368 29.1 109.568 24.45 109.568 19.2C109.568 15.95 110.568 12.45 112.918 9.2C116.218 4.3 122.468 0.499998 131.318 0.499998C135.068 0.499998 138.418 1.3 141.368 2.9C142.618 2 143.968 1.45 145.368 1.25ZM135.218 16.45L131.218 25.25C131.218 25.3 131.168 25.3 131.168 25.35C131.368 25.3 131.518 25.25 131.668 25.25C131.918 25.25 132.368 25.4 132.968 25.7C134.268 26.15 135.218 26.35 135.868 26.35C138.668 26.35 141.218 25.3 143.518 23.15C145.868 21 147.018 18.4 147.018 15.35C147.018 11.6 145.218 8.5 141.568 6.05C139.718 7.85 137.568 11.35 135.218 16.5V16.45ZM157.794 36.6C155.944 36.6 154.744 36 154.094 34.85C152.994 36 151.694 36.6 150.244 36.6C147.494 36.6 145.844 35.25 145.844 32.8C145.844 31.95 146.094 31 146.544 30L150.294 22.1C152.044 18.45 154.194 16.65 156.744 16.65C158.094 16.65 159.494 17.25 159.944 18.25C160.244 17.45 160.794 17.1 161.544 17.15C162.194 17.25 162.494 17.6 162.494 18.25C162.494 18.4 162.444 18.6 162.394 18.8L156.844 31.05C156.494 31.75 156.344 32.35 156.344 32.85C156.344 33.6 156.844 34 157.794 34C158.844 34 159.744 33.5 160.544 32.35C161.344 31.2 161.344 31.05 161.894 30.05C162.294 29.3 162.844 29.1 163.594 29.4C164.344 29.65 164.594 30.2 164.294 31C163.744 32.35 162.844 33.6 161.694 34.8C160.544 36 159.244 36.6 157.794 36.6ZM154.044 30.6L157.994 22.2C158.644 20.9 158.644 19.25 156.744 19.25C155.694 19.25 154.744 19.8 153.944 21C153.194 22.2 153.194 22.25 152.594 23.45L148.994 31.15C148.244 32.4 148.594 34 150.244 34C151.894 34 153.294 32.25 154.044 30.6ZM161.326 36.3C160.676 36.05 160.026 35.55 159.376 34.85C158.326 33.7 159.976 31.7 161.426 33C161.676 33.35 162.076 33.6 162.626 33.8C163.026 33.95 163.426 34 163.876 34C166.876 34 169.226 31.5 169.476 28.3C169.576 27.05 169.276 25.65 168.576 24.05C167.926 22.8 168.076 22.85 167.476 24.05C167.026 24.9 166.476 26.15 165.726 27.8C165.026 29.45 164.526 30.5 164.276 31.05C163.426 32.85 161.026 31.8 161.876 30C162.526 28.7 164.776 23.8 168.576 15.3C169.426 13.4 172.026 14.2 171.176 16.3L170.926 16.85C170.626 17.6 170.426 18.25 170.376 18.8C170.276 19.7 170.576 21.25 171.276 23.4C171.926 25.55 172.226 27.2 172.176 28.35C172.026 30.6 171.126 32.55 169.476 34.2C167.876 35.85 165.976 36.7 163.726 36.7C162.826 36.7 162.026 36.55 161.326 36.3ZM170.426 36.6C168.726 36.6 168.726 34 170.426 34C171.476 34 172.376 33.5 173.176 32.35C173.976 31.2 173.976 31.05 174.526 30.05C174.926 29.3 175.476 29.1 176.226 29.4C176.976 29.65 177.226 30.2 176.926 31C176.376 32.35 175.476 33.6 174.326 34.8C173.176 36 171.876 36.6 170.426 36.6ZM185.322 19.4L184.672 19.5H183.222C182.572 19.5 182.072 19.8 181.822 20.4L177.022 31.05C176.372 32.6 176.722 34 178.372 34C179.422 34 180.322 33.5 181.122 32.35C181.922 31.2 181.922 31.05 182.472 30.05C182.872 29.3 183.422 29.1 184.172 29.4C184.922 29.65 185.172 30.2 184.872 31C184.322 32.25 183.472 33.45 182.272 34.65C181.122 35.8 179.822 36.45 178.372 36.6C175.572 36.85 173.822 35.4 173.822 32.85C173.822 32.1 174.072 31.15 174.572 30.05L179.022 20.4C179.272 19.8 179.172 19.5 178.822 19.5C178.072 19.5 177.672 19.15 177.622 18.5C177.572 17.8 177.922 17.3 178.572 17.05C178.772 16.95 179.022 16.9 179.272 16.9H179.472C180.172 16.9 180.622 16.6 180.872 16L182.772 12C183.622 10.2 186.272 10.9 185.222 13.05L183.822 16C183.572 16.6 183.772 16.9 184.422 16.9H185.122C185.822 16.9 186.222 17.25 186.272 17.9C186.322 18.65 186.022 19.15 185.322 19.4ZM189.131 29.95L192.881 21.9C193.181 21.15 193.331 20.6 193.331 20.25C193.331 18.75 191.081 19.55 190.931 17.9L184.831 31.1C184.481 31.9 183.881 32.15 183.081 31.85C182.281 31.5 182.081 30.9 182.481 30.05L190.181 13.55C190.931 12 193.431 12.75 192.581 14.45C191.781 15.9 192.681 16.65 193.731 16.85C194.881 17 196.181 17.95 196.181 19.9C196.181 20.45 195.931 21.4 195.431 22.8L191.581 31.05C191.081 32.25 190.631 34 192.531 34C193.581 34 194.481 33.5 195.281 32.35C196.081 31.2 196.081 31.05 196.631 30.05C197.031 29.3 197.581 29.1 198.331 29.4C199.081 29.65 199.331 30.2 199.031 31C198.481 32.35 197.581 33.6 196.431 34.8C195.281 36 193.981 36.6 192.531 36.6C189.781 36.6 188.381 35.35 188.381 32.85C188.381 31.9 188.631 30.95 189.131 29.95ZM200.041 36.6C197.291 36.6 195.891 35.35 195.891 32.85C195.891 32.1 196.141 31.15 196.591 30.05L202.141 17.8C202.891 16.1 205.491 17.1 204.641 18.8L199.041 31C198.691 31.55 198.541 32.2 198.641 32.95C198.741 33.65 199.191 34 200.041 34C201.491 34 202.841 32.7 204.141 30.05C204.541 29.3 205.091 29.1 205.841 29.4C206.591 29.65 206.841 30.2 206.541 31C205.991 32.35 205.091 33.6 203.941 34.8C202.791 36 201.491 36.6 200.041 36.6ZM208.291 12.45C208.091 13.6 207.091 14.45 205.941 14.45C204.691 14.45 203.891 13.45 204.091 12.25C204.291 11.1 205.341 10.2 206.391 10.2C207.641 10.2 208.541 11.25 208.291 12.45ZM214.011 16.65C216.461 16.65 217.861 17.9 217.861 20.05C217.861 20.8 217.711 21.5 217.461 22.2C215.961 26.15 213.611 28.15 210.411 28.15C210.111 28.15 209.611 28.1 208.961 27.95C208.311 27.75 207.861 27.95 207.611 28.55C207.061 29.9 206.811 30.9 206.811 31.5C206.811 33.1 207.811 33.95 209.811 34C212.411 34 214.761 31.9 215.811 29.95C216.761 28.15 219.011 29.3 218.161 31C217.411 32.5 216.311 33.8 214.761 34.95C213.211 36.05 211.561 36.6 209.811 36.6C206.361 36.6 203.961 34.9 203.961 31.75C203.961 30.7 204.311 29.35 205.061 27.8L207.761 22.1C209.461 18.45 211.561 16.65 214.011 16.65ZM214.561 21.95C215.261 20.3 215.061 19.4 214.011 19.25C212.661 19.05 211.461 20.2 210.411 22.65L209.761 24.1C209.411 24.95 209.761 25.4 210.761 25.4C212.311 25.4 213.611 24.25 214.561 21.95ZM215.232 36.3C214.582 36.05 213.932 35.55 213.282 34.85C212.232 33.7 213.882 31.7 215.332 33C215.582 33.35 215.982 33.6 216.532 33.8C216.932 33.95 217.332 34 217.782 34C220.782 34 223.132 31.5 223.382 28.3C223.482 27.05 223.182 25.65 222.482 24.05C221.832 22.8 221.982 22.85 221.382 24.05C220.932 24.9 220.382 26.15 219.632 27.8C218.932 29.45 218.432 30.5 218.182 31.05C217.332 32.85 214.932 31.8 215.782 30C216.432 28.7 218.682 23.8 222.482 15.3C223.332 13.4 225.932 14.2 225.082 16.3L224.832 16.85C224.532 17.6 224.332 18.25 224.282 18.8C224.182 19.7 224.482 21.25 225.182 23.4C225.832 25.55 226.132 27.2 226.082 28.35C225.932 30.6 225.032 32.55 223.382 34.2C221.782 35.85 219.882 36.7 217.632 36.7C216.732 36.7 215.932 36.55 215.232 36.3ZM224.332 36.6C222.632 36.6 222.632 34 224.332 34C225.382 34 226.282 33.5 227.082 32.35C227.882 31.2 227.882 31.05 228.432 30.05C228.832 29.3 229.382 29.1 230.132 29.4C230.882 29.65 231.132 30.2 230.832 31C230.282 32.35 229.382 33.6 228.232 34.8C227.082 36 225.782 36.6 224.332 36.6Z" fill="#FD6621"/>
</svg>
