<svg width="225" height="43" viewBox="0 0 225 43" fill="none" xmlns="http://www.w3.org/2000/svg">
<path d="M26.25 1.85H27C29.55 1.95 32.95 2.65 37.2 4C41.5 5.35 44.45 6 46.1 6C49.7 6 51.75 4.25 51.95 2.5C52.15 0.349997 54.8 0.749998 54.6 2.95C54.45 4.35 53.6 5.65 52.05 6.85C50.5 8.05 48.5 8.65 46.1 8.65C44.4 8.7 41.5 8.15 37.4 7C36.5 6.8 35.85 6.95 35.5 7.45C33.85 9.55 32.1 12.75 30.2 17.05L29.6 18.35C29.35 18.95 29.55 19.25 30.2 19.25H32.15C32.9 19.25 33.35 19.6 33.4 20.25C33.45 20.95 33.15 21.45 32.45 21.75C32.2 21.85 31.95 21.9 31.7 21.9H28.95C28.3 21.9 27.8 22.2 27.55 22.8L26.85 24.3C26 26.15 25.3 27.6 24.75 28.7C24.2 29.75 23.5 31 22.65 32.4C21.8 33.8 21 34.9 20.15 35.75C17.65 38.3 13.95 40.55 9.05 40.4C5.5 40.4 2.5 38.85 1.55 36.6C0.4 34.25 3.2 33.15 4.05 35.45C4.5 36.7 6.55 37.7 9 37.7C12.35 37.7 15.2 36.5 17.15 35.05C18.1 34.3 19.05 33.2 20 31.85C20.95 30.5 21.7 29.25 22.25 28.1C22.85 26.95 23.55 25.4 24.35 23.55L24.7 22.75C24.95 22.15 24.75 21.85 24.1 21.85H24C23.25 21.85 22.8 21.5 22.75 20.85C22.7 20.15 23.05 19.65 23.8 19.4C24 19.3 24.25 19.25 24.5 19.25H25.3C25.95 19.25 26.45 18.95 26.7 18.35L27.7 16.1C29.6 11.85 31.3 8.75 32.75 6.8C33.2 6.25 33.1 5.85 32.4 5.6C30.25 5.05 28.45 4.7 27 4.6C20.05 4.35 14.15 6.5 10.75 9.9C7.4 13.25 5.55 17.3 5.55 21.15C5.55 25.75 8.1 29.9 12.35 31.5C14.55 32.35 13.55 35 11.35 34.15C8.7 33.15 6.65 31.45 5.1 29C3.6 26.55 2.85 23.95 2.85 21.2C2.85 12.6 10.05 1.8 25.55 1.8C25.75 1.8 26.05 1.85 26.25 1.85ZM44.5105 36.6C42.6605 36.6 41.4605 36 40.8105 34.85C39.7105 36 38.4105 36.6 36.9605 36.6C34.2105 36.6 32.5605 35.25 32.5605 32.8C32.5605 31.95 32.8105 31 33.2605 30L37.0105 22.1C38.7605 18.45 40.9105 16.65 43.4605 16.65C44.8105 16.65 46.2105 17.25 46.6605 18.25C46.9605 17.45 47.5105 17.1 48.2605 17.15C48.9105 17.25 49.2105 17.6 49.2105 18.25C49.2105 18.4 49.1605 18.6 49.1105 18.8L43.5605 31.05C43.2105 31.75 43.0605 32.35 43.0605 32.85C43.0605 33.6 43.5605 34 44.5105 34C45.5605 34 46.4605 33.5 47.2605 32.35C48.0605 31.2 48.0605 31.05 48.6105 30.05C49.0105 29.3 49.5605 29.1 50.3105 29.4C51.0605 29.65 51.3105 30.2 51.0105 31C50.4605 32.35 49.5605 33.6 48.4105 34.8C47.2605 36 45.9605 36.6 44.5105 36.6ZM40.7605 30.6L44.7105 22.2C45.3605 20.9 45.3605 19.25 43.4605 19.25C42.4105 19.25 41.4605 19.8 40.6605 21C39.9105 22.2 39.9105 22.25 39.3105 23.45L35.7105 31.15C34.9605 32.4 35.3105 34 36.9605 34C38.6105 34 40.0105 32.25 40.7605 30.6ZM48.5926 30L52.5926 21.3L59.3426 6.55C60.1926 4.75 62.8426 5.45 61.7926 7.6L56.9926 17.35C57.8426 16.85 58.6426 16.6 59.4426 16.6C61.6926 16.6 63.0926 18.1 63.0926 20.45C63.0926 21.35 62.8426 22.3 62.3426 23.3L58.6426 31.15C56.9926 34.8 54.8426 36.6 52.1926 36.6C49.5426 36.6 47.8926 35.1 47.8926 32.7C47.8926 31.9 48.1426 31 48.5926 30ZM54.5926 23.15L50.8926 31.4C50.2926 32.75 50.7426 34 52.1926 34C53.6426 34 55.0426 32.65 56.3426 29.9L59.9426 22.1C60.7926 20.2 60.4426 19.25 58.8926 19.25C57.0426 19.25 55.4426 21.3 54.5926 23.15ZM58.2426 36.6C56.6426 36.6 56.6426 34 58.2426 34C59.2926 34 60.1926 33.5 60.9926 32.35C61.7926 31.2 61.7926 31.05 62.3426 30.05C62.7426 29.3 63.2926 29.1 64.0426 29.4C64.7926 29.65 65.0426 30.2 64.7426 31C64.1926 32.35 63.2926 33.6 62.1426 34.8C60.9926 36 59.6926 36.6 58.2426 36.6ZM70.4121 18.9L64.7621 31.15C64.4621 31.9 64.3121 32.45 64.3121 32.8C64.3121 33.6 64.8621 34 66.0121 34C67.6121 34 69.2121 32.1 69.9621 30.45L75.7121 17.8C76.4621 16 79.0121 16.9 78.1621 18.8L72.6121 31.05C72.2621 31.75 72.1121 32.35 72.1121 32.85C72.1121 33.6 72.6121 34 73.5621 34C75.0121 34 76.3621 32.7 77.6621 30.05C78.0621 29.3 78.6121 29.1 79.3621 29.4C80.1121 29.65 80.3621 30.2 80.0621 31C79.5121 32.35 78.6121 33.6 77.4621 34.8C76.3121 36 75.0121 36.6 73.5621 36.6C71.7121 36.6 70.5121 36 69.8621 34.85C68.7621 36 67.4621 36.6 66.0121 36.6C63.2621 36.6 61.6121 35.25 61.6121 32.8C61.6121 32.15 61.8621 31.2 62.3621 30.05L67.9621 17.8C68.8121 16 71.2621 17 70.4121 18.9ZM90.9453 7.6L80.1453 31.05C79.6453 32.25 79.1953 34 81.0953 34C82.1453 34 83.0453 33.5 83.8453 32.35C84.6453 31.2 84.6453 31.05 85.1953 30.05C85.5953 29.3 86.1453 29.1 86.8953 29.4C87.6453 29.65 87.8953 30.2 87.5953 31C87.0453 32.35 86.1453 33.6 84.9953 34.8C83.8453 36 82.5453 36.6 81.0953 36.6C78.3453 36.6 76.9453 35.35 76.9453 32.85C76.9453 32 77.1953 31 77.6953 29.95L88.4953 6.55C89.3453 4.75 91.9953 5.45 90.9453 7.6ZM88.9137 36.6C86.1637 36.6 84.5137 35.25 84.5137 32.8C84.5137 31.95 84.7637 31 85.2137 30L88.9637 22.1C90.7137 18.45 92.8637 16.65 95.4137 16.65C98.1637 16.65 99.8137 18 99.8137 20.45C99.8137 21.35 99.5637 22.3 99.0637 23.3L95.3637 31.15C93.6137 34.8 91.4637 36.6 88.9137 36.6ZM87.2137 32.8C87.2137 33.6 87.7637 34 88.9137 34C90.3637 34 91.7637 32.65 93.0637 29.9L96.6637 22.1C97.5137 20.2 97.0637 19.25 95.4137 19.25C94.3637 19.25 93.4137 19.8 92.6137 21C91.8637 22.2 91.8637 22.25 91.2637 23.45L87.6637 31.15C87.3637 31.75 87.2137 32.3 87.2137 32.8ZM106.691 18.9L101.041 31.15C100.741 31.9 100.591 32.45 100.591 32.8C100.591 33.6 101.141 34 102.291 34C103.891 34 105.491 32.1 106.241 30.45L111.991 17.8C112.741 16 115.291 16.9 114.441 18.8L108.891 31.05C108.541 31.75 108.391 32.35 108.391 32.85C108.391 33.6 108.891 34 109.841 34C111.291 34 112.641 32.7 113.941 30.05C114.341 29.3 114.891 29.1 115.641 29.4C116.391 29.65 116.641 30.2 116.341 31C115.791 32.35 114.891 33.6 113.741 34.8C112.591 36 111.291 36.6 109.841 36.6C107.991 36.6 106.791 36 106.141 34.85C105.041 36 103.741 36.6 102.291 36.6C99.5414 36.6 97.8914 35.25 97.8914 32.8C97.8914 32.15 98.1414 31.2 98.6414 30.05L104.241 17.8C105.091 16 107.541 17 106.691 18.9ZM113.375 36.3C112.725 36.05 112.075 35.55 111.425 34.85C110.375 33.7 112.025 31.7 113.475 33C113.725 33.35 114.125 33.6 114.675 33.8C115.075 33.95 115.475 34 115.925 34C118.925 34 121.275 31.5 121.525 28.3C121.625 27.05 121.325 25.65 120.625 24.05C119.975 22.8 120.125 22.85 119.525 24.05C119.075 24.9 118.525 26.15 117.775 27.8C117.075 29.45 116.575 30.5 116.325 31.05C115.475 32.85 113.075 31.8 113.925 30C114.575 28.7 116.825 23.8 120.625 15.3C121.475 13.4 124.075 14.2 123.225 16.3L122.975 16.85C122.675 17.6 122.475 18.25 122.425 18.8C122.325 19.7 122.625 21.25 123.325 23.4C123.975 25.55 124.275 27.2 124.225 28.35C124.075 30.6 123.175 32.55 121.525 34.2C119.925 35.85 118.025 36.7 115.775 36.7C114.875 36.7 114.075 36.55 113.375 36.3ZM151.489 42.55C146.939 42.55 143.239 40.9 140.489 37.65C137.739 34.4 136.389 30.5 136.539 25.95C136.589 23.4 137.239 20.7 138.489 17.95C139.739 15.15 141.389 12.6 143.439 10.25C145.489 7.9 148.039 5.95 151.089 4.45C154.139 2.9 157.289 2.15 160.639 2.15C164.139 2.15 166.889 3.05 168.889 4.8C170.889 6.55 171.889 8.55 171.939 10.9C171.889 13 171.039 14.9 169.489 16.55C167.939 18.2 166.039 19 163.789 19C159.339 19 157.389 16.4 157.539 13.2C157.539 12.3 157.889 11.45 158.539 10.6C160.089 8.75 161.989 10.05 160.939 11.9C160.489 12.55 160.239 13.05 160.239 13.5C160.189 15.05 161.389 16.35 163.939 16.35C165.389 16.35 166.639 15.8 167.689 14.75C168.739 13.7 169.239 12.5 169.289 11.15C169.339 9.5 168.589 8 167.039 6.75C165.489 5.45 163.339 4.8 160.539 4.8C154.589 4.8 148.939 7.8 145.339 12C141.739 16.15 139.439 21.35 139.289 25.9C139.189 29.5 140.289 32.75 142.539 35.6C144.839 38.45 147.839 39.85 151.589 39.85C154.489 39.85 156.939 38.95 158.989 37.2C161.039 35.45 162.189 33.45 162.439 31.2C162.639 29.65 162.289 28.3 161.339 27.15C160.389 26 159.139 25.4 157.539 25.4C154.789 25.35 152.989 26.85 152.839 28.6C152.739 30.75 150.189 30.75 150.289 28.6C150.339 27.05 151.089 25.7 152.539 24.5C153.989 23.25 155.789 22.65 157.939 22.7C160.289 22.7 162.189 23.6 163.539 25.4C164.889 27.15 165.439 29.2 165.089 31.45C164.639 34.3 163.189 36.9 160.639 39.15C158.089 41.4 155.039 42.55 151.489 42.55ZM179.227 36.6C177.377 36.6 176.177 36 175.527 34.85C174.427 36 173.127 36.6 171.677 36.6C168.927 36.6 167.277 35.25 167.277 32.8C167.277 31.95 167.527 31 167.977 30L171.727 22.1C173.477 18.45 175.627 16.65 178.177 16.65C179.527 16.65 180.927 17.25 181.377 18.25C181.677 17.45 182.227 17.1 182.977 17.15C183.627 17.25 183.927 17.6 183.927 18.25C183.927 18.4 183.877 18.6 183.827 18.8L178.277 31.05C177.927 31.75 177.777 32.35 177.777 32.85C177.777 33.6 178.277 34 179.227 34C180.277 34 181.177 33.5 181.977 32.35C182.777 31.2 182.777 31.05 183.327 30.05C183.727 29.3 184.277 29.1 185.027 29.4C185.777 29.65 186.027 30.2 185.727 31C185.177 32.35 184.277 33.6 183.127 34.8C181.977 36 180.677 36.6 179.227 36.6ZM175.477 30.6L179.427 22.2C180.077 20.9 180.077 19.25 178.177 19.25C177.127 19.25 176.177 19.8 175.377 21C174.627 22.2 174.627 22.25 174.027 23.45L170.427 31.15C169.677 32.4 170.027 34 171.677 34C173.327 34 174.727 32.25 175.477 30.6ZM193.359 36.6C189.559 36.6 188.009 34 188.009 30.65C188.009 29.8 188.159 28.8 188.409 27.65C188.659 26.7 188.659 26.75 189.409 26.6C190.709 26.45 192.059 25.75 193.459 24.5C194.909 23.25 195.609 21.95 195.609 20.6C195.609 19.7 195.159 19.25 194.209 19.25C192.559 19.25 190.609 20.45 189.609 22.6L185.759 31.05C185.009 32.8 182.709 36.6 179.159 36.6C177.409 36.6 177.659 34 179.159 34C180.709 34 182.059 32.7 183.309 30.05L194.109 6.55C194.959 4.75 197.609 5.45 196.559 7.6L191.459 18.05C192.659 17.1 193.759 16.65 194.809 16.65C197.059 16.65 198.509 18.1 198.509 20.5C198.509 22.15 197.809 23.8 196.359 25.4C194.959 26.95 193.359 28.15 191.559 28.9C191.009 29.15 190.759 29.65 190.759 30.4C190.759 32.8 191.609 34 193.359 34C194.009 34 194.709 33.7 195.409 33.15C196.809 32 197.409 31.05 197.859 30.05C198.259 29.3 198.809 29.1 199.559 29.4C200.309 29.65 200.559 30.2 200.259 31C199.709 32.25 198.809 33.5 197.459 34.75C196.159 36 194.809 36.6 193.359 36.6ZM207.613 16.65C210.063 16.65 211.463 17.9 211.463 20.05C211.463 20.8 211.313 21.5 211.063 22.2C209.563 26.15 207.213 28.15 204.013 28.15C203.713 28.15 203.213 28.1 202.563 27.95C201.913 27.75 201.463 27.95 201.213 28.55C200.663 29.9 200.413 30.9 200.413 31.5C200.413 33.1 201.413 33.95 203.413 34C206.013 34 208.363 31.9 209.413 29.95C210.363 28.15 212.613 29.3 211.763 31C211.013 32.5 209.913 33.8 208.363 34.95C206.813 36.05 205.163 36.6 203.413 36.6C199.962 36.6 197.562 34.9 197.562 31.75C197.562 30.7 197.912 29.35 198.663 27.8L201.363 22.1C203.063 18.45 205.163 16.65 207.613 16.65ZM208.163 21.95C208.863 20.3 208.663 19.4 207.613 19.25C206.263 19.05 205.063 20.2 204.013 22.65L203.363 24.1C203.013 24.95 203.363 25.4 204.363 25.4C205.913 25.4 207.213 24.25 208.163 21.95ZM208.834 36.3C208.184 36.05 207.534 35.55 206.884 34.85C205.834 33.7 207.484 31.7 208.934 33C209.184 33.35 209.584 33.6 210.134 33.8C210.534 33.95 210.934 34 211.384 34C214.384 34 216.734 31.5 216.984 28.3C217.084 27.05 216.784 25.65 216.084 24.05C215.434 22.8 215.584 22.85 214.984 24.05C214.534 24.9 213.984 26.15 213.234 27.8C212.534 29.45 212.034 30.5 211.784 31.05C210.934 32.85 208.534 31.8 209.384 30C210.034 28.7 212.284 23.8 216.084 15.3C216.934 13.4 219.534 14.2 218.684 16.3L218.434 16.85C218.134 17.6 217.934 18.25 217.884 18.8C217.784 19.7 218.084 21.25 218.784 23.4C219.434 25.55 219.734 27.2 219.684 28.35C219.534 30.6 218.634 32.55 216.984 34.2C215.384 35.85 213.484 36.7 211.234 36.7C210.334 36.7 209.534 36.55 208.834 36.3ZM217.934 36.6C216.234 36.6 216.234 34 217.934 34C218.984 34 219.884 33.5 220.684 32.35C221.484 31.2 221.484 31.05 222.034 30.05C222.434 29.3 222.984 29.1 223.734 29.4C224.484 29.65 224.734 30.2 224.434 31C223.884 32.35 222.984 33.6 221.834 34.8C220.684 36 219.384 36.6 217.934 36.6Z" fill="#FD6621"/>
</svg>
