<svg width="24" height="134" viewBox="0 0 24 134" fill="none" xmlns="http://www.w3.org/2000/svg">
<g id="Carousel Indicators">
<path id="Ellipse 31" d="M23.5 11.5C23.5 17.5553 18.3715 22.5 12 22.5C5.62846 22.5 0.5 17.5553 0.5 11.5C0.5 5.44471 5.62846 0.5 12 0.5C18.3715 0.5 23.5 5.44471 23.5 11.5Z" fill="#ED4B01" stroke="#ED4B01"/>
<path id="Ellipse 32" d="M23.5 48.5C23.5 54.5553 18.3715 59.5 12 59.5C5.62846 59.5 0.5 54.5553 0.5 48.5C0.5 42.4447 5.62846 37.5 12 37.5C18.3715 37.5 23.5 42.4447 23.5 48.5Z" fill="white" stroke="#ED4B01"/>
<path id="Ellipse 33" d="M23.5 85.5C23.5 91.5553 18.3715 96.5 12 96.5C5.62846 96.5 0.5 91.5553 0.5 85.5C0.5 79.4447 5.62846 74.5 12 74.5C18.3715 74.5 23.5 79.4447 23.5 85.5Z" fill="white" stroke="#ED4B01"/>
<path id="Ellipse 34" d="M23.5 122.5C23.5 128.555 18.3715 133.5 12 133.5C5.62846 133.5 0.5 128.555 0.5 122.5C0.5 116.445 5.62846 111.5 12 111.5C18.3715 111.5 23.5 116.445 23.5 122.5Z" fill="white" stroke="#ED4B01"/>
</g>
</svg>
