<svg width="1362" height="57" viewBox="0 0 1362 57" fill="none" xmlns="http://www.w3.org/2000/svg">
<rect y="28" width="114" height="2" fill="black"/>
<rect x="424" y="28" width="114" height="2" fill="black"/>
<rect x="825" y="28" width="114" height="2" fill="black"/>
<rect x="1248" y="28" width="114" height="2" fill="black"/>
<circle cx="306" cy="31" r="6" fill="#FD5001"/>
<circle cx="269" cy="30" r="6" fill="#FD5001"/>
<circle cx="232" cy="30" r="6" fill="#FD5001"/>
<circle cx="1057" cy="29" r="6" fill="#FD5001"/>
<circle cx="1094" cy="29" r="6" fill="#FD5001"/>
<circle cx="1131" cy="29" r="6" fill="#FD5001"/>
<path d="M593.6 9.68H594.2C596.24 9.76 598.96 10.32 602.36 11.4C605.8 12.48 608.16 13 609.48 13C612.36 13 614 11.6 614.16 10.2C614.32 8.48 616.44 8.8 616.28 10.56C616.16 11.68 615.48 12.72 614.24 13.68C613 14.64 611.4 15.12 609.48 15.12C608.12 15.16 605.8 14.72 602.52 13.8C601.8 13.64 601.28 13.76 601 14.16C599.68 15.84 598.28 18.4 596.76 21.84L596.28 22.88C596.08 23.36 596.24 23.6 596.76 23.6H598.32C598.92 23.6 599.28 23.88 599.32 24.4C599.36 24.96 599.12 25.36 598.56 25.6C598.36 25.68 598.16 25.72 597.96 25.72H595.76C595.24 25.72 594.84 25.96 594.64 26.44L594.08 27.64C593.4 29.12 592.84 30.28 592.4 31.16C591.96 32 591.4 33 590.72 34.12C590.04 35.24 589.4 36.12 588.72 36.8C586.72 38.84 583.76 40.64 579.84 40.52C577 40.52 574.6 39.28 573.84 37.48C572.92 35.6 575.16 34.72 575.84 36.56C576.2 37.56 577.84 38.36 579.8 38.36C582.48 38.36 584.76 37.4 586.32 36.24C587.08 35.64 587.84 34.76 588.6 33.68C589.36 32.6 589.96 31.6 590.4 30.68C590.88 29.76 591.44 28.52 592.08 27.04L592.36 26.4C592.56 25.92 592.4 25.68 591.88 25.68H591.8C591.2 25.68 590.84 25.4 590.8 24.88C590.76 24.32 591.04 23.92 591.64 23.72C591.8 23.64 592 23.6 592.2 23.6H592.84C593.36 23.6 593.76 23.36 593.96 22.88L594.76 21.08C596.28 17.68 597.64 15.2 598.8 13.64C599.16 13.2 599.08 12.88 598.52 12.68C596.8 12.24 595.36 11.96 594.2 11.88C588.64 11.68 583.92 13.4 581.2 16.12C578.52 18.8 577.04 22.04 577.04 25.12C577.04 28.8 579.08 32.12 582.48 33.4C584.24 34.08 583.44 36.2 581.68 35.52C579.56 34.72 577.92 33.36 576.68 31.4C575.48 29.44 574.88 27.36 574.88 25.16C574.88 18.28 580.64 9.64 593.04 9.64C593.2 9.64 593.44 9.68 593.6 9.68ZM607.088 21.52C609.048 21.52 610.168 22.52 610.168 24.24C610.168 24.84 610.048 25.4 609.848 25.96C608.648 29.12 606.768 30.72 604.208 30.72C603.968 30.72 603.568 30.68 603.048 30.56C602.528 30.4 602.168 30.56 601.968 31.04C601.528 32.12 601.328 32.92 601.328 33.4C601.328 34.68 602.128 35.36 603.728 35.4C605.808 35.4 607.688 33.72 608.528 32.16C609.288 30.72 611.088 31.64 610.408 33C609.808 34.2 608.928 35.24 607.688 36.16C606.448 37.04 605.128 37.48 603.728 37.48C600.968 37.48 599.048 36.12 599.048 33.6C599.048 32.76 599.328 31.68 599.928 30.44L602.088 25.88C603.448 22.96 605.128 21.52 607.088 21.52ZM607.528 25.76C608.088 24.44 607.928 23.72 607.088 23.6C606.008 23.44 605.048 24.36 604.208 26.32L603.688 27.48C603.408 28.16 603.688 28.52 604.488 28.52C605.728 28.52 606.768 27.6 607.528 25.76ZM617.505 37.48C616.025 37.48 615.065 37 614.545 36.08C613.665 37 612.625 37.48 611.465 37.48C609.265 37.48 607.945 36.4 607.945 34.44C607.945 33.76 608.145 33 608.505 32.2L611.505 25.88C612.905 22.96 614.625 21.52 616.665 21.52C617.745 21.52 618.865 22 619.225 22.8C619.465 22.16 619.905 21.88 620.505 21.92C621.025 22 621.265 22.28 621.265 22.8C621.265 22.92 621.225 23.08 621.185 23.24L616.745 33.04C616.465 33.6 616.345 34.08 616.345 34.48C616.345 35.08 616.745 35.4 617.505 35.4C618.345 35.4 619.065 35 619.705 34.08C620.345 33.16 620.345 33.04 620.785 32.24C621.105 31.64 621.545 31.48 622.145 31.72C622.745 31.92 622.945 32.36 622.705 33C622.265 34.08 621.545 35.08 620.625 36.04C619.705 37 618.665 37.48 617.505 37.48ZM614.505 32.68L617.665 25.96C618.185 24.92 618.185 23.6 616.665 23.6C615.825 23.6 615.065 24.04 614.425 25C613.825 25.96 613.825 26 613.345 26.96L610.465 33.12C609.865 34.12 610.145 35.4 611.465 35.4C612.785 35.4 613.905 34 614.505 32.68ZM629.411 23.72L628.891 23.8H627.731C627.211 23.8 626.811 24.04 626.611 24.52L622.771 33.04C622.251 34.28 622.531 35.4 623.851 35.4C624.691 35.4 625.411 35 626.051 34.08C626.691 33.16 626.691 33.04 627.131 32.24C627.451 31.64 627.891 31.48 628.491 31.72C629.091 31.92 629.291 32.36 629.051 33C628.611 34 627.931 34.96 626.971 35.92C626.051 36.84 625.011 37.36 623.851 37.48C621.611 37.68 620.211 36.52 620.211 34.48C620.211 33.88 620.411 33.12 620.811 32.24L624.371 24.52C624.571 24.04 624.491 23.8 624.211 23.8C623.611 23.8 623.291 23.52 623.251 23C623.211 22.44 623.491 22.04 624.011 21.84C624.171 21.76 624.371 21.72 624.571 21.72H624.731C625.291 21.72 625.651 21.48 625.851 21L627.371 17.8C628.051 16.36 630.171 16.92 629.331 18.64L628.211 21C628.011 21.48 628.171 21.72 628.691 21.72H629.251C629.811 21.72 630.131 22 630.171 22.52C630.211 23.12 629.971 23.52 629.411 23.72ZM633.578 23.32L629.058 33.12C628.818 33.72 628.698 34.16 628.698 34.44C628.698 35.08 629.138 35.4 630.058 35.4C631.338 35.4 632.618 33.88 633.218 32.56L637.818 22.44C638.418 21 640.458 21.72 639.778 23.24L635.338 33.04C635.058 33.6 634.938 34.08 634.938 34.48C634.938 35.08 635.338 35.4 636.098 35.4C637.258 35.4 638.338 34.36 639.378 32.24C639.698 31.64 640.138 31.48 640.738 31.72C641.338 31.92 641.538 32.36 641.298 33C640.858 34.08 640.138 35.08 639.218 36.04C638.298 37 637.258 37.48 636.098 37.48C634.618 37.48 633.658 37 633.138 36.08C632.258 37 631.218 37.48 630.058 37.48C627.858 37.48 626.538 36.4 626.538 34.44C626.538 33.92 626.738 33.16 627.138 32.24L631.618 22.44C632.298 21 634.258 21.8 633.578 23.32ZM644.685 32.16L647.685 25.72C647.925 25.12 648.045 24.68 648.045 24.4C648.045 23.2 646.245 23.84 646.125 22.52L641.245 33.08C640.965 33.72 640.485 33.92 639.845 33.68C639.205 33.4 639.045 32.92 639.365 32.24L645.525 19.04C646.125 17.8 648.125 18.4 647.445 19.76C646.805 20.92 647.525 21.52 648.365 21.68C649.285 21.8 650.325 22.56 650.325 24.12C650.325 24.56 650.125 25.32 649.725 26.44L646.645 33.04C646.245 34 645.885 35.4 647.405 35.4C648.245 35.4 648.965 35 649.605 34.08C650.245 33.16 650.245 33.04 650.685 32.24C651.005 31.64 651.445 31.48 652.045 31.72C652.645 31.92 652.845 32.36 652.605 33C652.165 34.08 651.445 35.08 650.525 36.04C649.605 37 648.565 37.48 647.405 37.48C645.205 37.48 644.085 36.48 644.085 34.48C644.085 33.72 644.285 32.96 644.685 32.16ZM658.573 21.52C660.533 21.52 661.653 22.52 661.653 24.24C661.653 24.84 661.533 25.4 661.333 25.96C660.133 29.12 658.253 30.72 655.693 30.72C655.453 30.72 655.053 30.68 654.533 30.56C654.013 30.4 653.653 30.56 653.453 31.04C653.013 32.12 652.813 32.92 652.813 33.4C652.813 34.68 653.613 35.36 655.213 35.4C657.293 35.4 659.173 33.72 660.013 32.16C660.773 30.72 662.573 31.64 661.893 33C661.293 34.2 660.413 35.24 659.173 36.16C657.933 37.04 656.613 37.48 655.213 37.48C652.453 37.48 650.533 36.12 650.533 33.6C650.533 32.76 650.813 31.68 651.413 30.44L653.573 25.88C654.933 22.96 656.613 21.52 658.573 21.52ZM659.013 25.76C659.573 24.44 659.413 23.72 658.573 23.6C657.493 23.44 656.533 24.36 655.693 26.32L655.173 27.48C654.893 28.16 655.173 28.52 655.973 28.52C657.213 28.52 658.253 27.6 659.013 25.76ZM676.87 14.28L668.23 33.04C667.83 34 667.47 35.4 668.99 35.4C669.83 35.4 670.55 35 671.19 34.08C671.83 33.16 671.83 33.04 672.27 32.24C672.59 31.64 673.03 31.48 673.63 31.72C674.23 31.92 674.43 32.36 674.19 33C673.75 34.08 673.03 35.08 672.11 36.04C671.19 37 670.15 37.48 668.99 37.48C668.27 37.48 667.67 37.36 667.19 37.12V37.16C666.95 37.04 666.75 36.88 666.55 36.76C666.31 36.56 666.15 36.36 666.03 36.08C665.15 37 664.11 37.48 662.95 37.48C660.75 37.48 659.43 36.4 659.43 34.44C659.43 33.76 659.63 33 659.99 32.2L662.99 25.88C664.39 22.96 666.11 21.52 668.15 21.52C669.35 21.52 670.19 21.92 670.63 22.68L674.91 13.44C675.59 12 677.71 12.56 676.87 14.28ZM666.27 32.16L668.91 26.44L669.31 25.56C669.75 24.64 669.39 23.6 668.15 23.6C667.31 23.6 666.55 24.04 665.91 25C665.31 25.96 665.31 26 664.83 26.96L661.95 33.12C661.35 34.12 661.63 35.4 662.95 35.4C664.19 35.4 665.31 34.32 666.27 32.16ZM709.752 9.2C710.472 9.04 710.912 9.24 711.112 9.8C711.312 10.32 711.112 10.76 710.512 11.04C710.352 11.12 710.152 11.16 709.912 11.2C709.432 11.32 708.992 11.52 708.552 11.76C711.672 14.04 713.232 16.96 713.232 20.52C713.232 23.6 712.072 26.16 709.792 28.28C707.512 30.36 704.992 31.4 702.152 31.4C700.352 31.4 698.432 30.76 697.792 29.8C696.872 31.72 696.072 33.28 695.352 34.48C694.632 35.68 693.712 36.88 692.632 38.04C690.512 40.4 687.672 41.48 683.992 41.52C682.632 41.48 681.352 41.16 680.192 40.48C679.032 39.84 678.352 39.04 678.072 38.08C677.872 36.88 678.232 36.28 679.112 36.28C679.552 36.28 680.032 36.64 680.192 37.24C680.512 38.36 681.952 39.36 683.832 39.36C686.552 39.36 688.912 38.36 690.472 37.12C691.232 36.52 692.032 35.64 692.792 34.48C693.592 33.32 694.232 32.28 694.672 31.4C695.112 30.48 695.712 29.24 696.432 27.68L699.672 20.6C701.392 16.76 703.112 13.92 704.872 12.04C702.832 11.12 700.752 10.68 698.592 10.68C694.552 10.68 690.952 11.88 688.592 13.64C685.032 16.36 683.272 20.12 683.272 23.48C683.272 26.88 684.952 29.84 688.112 31.16C688.672 31.44 688.952 31.8 688.952 32.16C688.952 32.76 688.512 33.2 687.872 33.2C687.672 33.2 687.472 33.16 687.312 33.08L687.352 33.12C683.352 31.48 681.112 27.76 681.112 23.56C681.112 20.96 681.912 18.16 683.792 15.56C686.432 11.64 691.432 8.6 698.512 8.6C701.512 8.6 704.192 9.24 706.552 10.52C707.552 9.8 708.632 9.36 709.752 9.2ZM701.632 21.36L698.432 28.4C698.432 28.44 698.392 28.44 698.392 28.48C698.552 28.44 698.672 28.4 698.792 28.4C698.992 28.4 699.352 28.52 699.832 28.76C700.872 29.12 701.632 29.28 702.152 29.28C704.392 29.28 706.432 28.44 708.272 26.72C710.152 25 711.072 22.92 711.072 20.48C711.072 17.48 709.632 15 706.712 13.04C705.232 14.48 703.512 17.28 701.632 21.4V21.36ZM716.013 32.16L719.013 25.72C719.253 25.12 719.373 24.68 719.373 24.4C719.373 24 719.053 23.72 718.453 23.52C717.853 23.32 717.493 23.04 717.453 22.6L712.573 33.08C711.933 34.48 711.613 35.8 711.613 37.04C711.613 38.32 712.093 39.48 712.773 39.48C714.293 39.48 714.373 41.64 712.773 41.64C710.653 41.64 709.453 39.6 709.453 37.04C709.453 35.72 709.853 34.12 710.693 32.2L716.773 18.88C717.453 17.28 719.533 18.16 718.773 19.76C718.133 20.92 718.853 21.52 719.693 21.68C720.613 21.8 721.653 22.56 721.653 24.12C721.653 24.56 721.453 25.32 721.053 26.44L717.973 33.04C717.573 34 717.213 35.4 718.733 35.4C719.573 35.4 720.293 35 720.933 34.08C721.573 33.16 721.573 33.04 722.013 32.24C722.333 31.64 722.773 31.48 723.373 31.72C723.973 31.92 724.173 32.36 723.933 33C723.493 34.08 722.773 35.08 721.853 36.04C720.933 37 719.893 37.48 718.733 37.48C716.533 37.48 715.413 36.48 715.413 34.48C715.413 33.72 715.613 32.96 716.013 32.16ZM724.981 37.48C722.781 37.48 721.461 36.4 721.461 34.44C721.461 33.76 721.661 33 722.021 32.2L725.021 25.88C726.421 22.96 728.141 21.52 730.181 21.52C732.381 21.52 733.701 22.6 733.701 24.56C733.701 25.28 733.501 26.04 733.101 26.84L730.141 33.12C728.741 36.04 727.021 37.48 724.981 37.48ZM723.621 34.44C723.621 35.08 724.061 35.4 724.981 35.4C726.141 35.4 727.261 34.32 728.301 32.12L731.181 25.88C731.861 24.36 731.501 23.6 730.181 23.6C729.341 23.6 728.581 24.04 727.941 25C727.341 25.96 727.341 26 726.861 26.96L723.981 33.12C723.741 33.6 723.621 34.04 723.621 34.44ZM749.643 14.28L741.003 33.04C740.603 34 740.243 35.4 741.763 35.4C742.603 35.4 743.323 35 743.963 34.08C744.603 33.16 744.603 33.04 745.043 32.24C745.363 31.64 745.803 31.48 746.403 31.72C747.003 31.92 747.203 32.36 746.963 33C746.523 34.08 745.803 35.08 744.883 36.04C743.963 37 742.923 37.48 741.763 37.48C741.043 37.48 740.443 37.36 739.963 37.12V37.16C739.723 37.04 739.523 36.88 739.323 36.76C739.083 36.56 738.923 36.36 738.803 36.08C737.923 37 736.883 37.48 735.723 37.48C733.523 37.48 732.203 36.4 732.203 34.44C732.203 33.76 732.403 33 732.763 32.2L735.763 25.88C737.163 22.96 738.883 21.52 740.923 21.52C742.123 21.52 742.963 21.92 743.403 22.68L747.683 13.44C748.363 12 750.483 12.56 749.643 14.28ZM739.043 32.16L741.683 26.44L742.083 25.56C742.523 24.64 742.163 23.6 740.923 23.6C740.083 23.6 739.323 24.04 738.683 25C738.083 25.96 738.083 26 737.603 26.96L734.723 33.12C734.123 34.12 734.403 35.4 735.723 35.4C736.963 35.4 738.083 34.32 739.043 32.16ZM751.469 23.32L746.949 33.12C746.709 33.72 746.589 34.16 746.589 34.44C746.589 35.08 747.029 35.4 747.949 35.4C749.229 35.4 750.509 33.88 751.109 32.56L755.709 22.44C756.309 21 758.349 21.72 757.669 23.24L753.229 33.04C752.949 33.6 752.829 34.08 752.829 34.48C752.829 35.08 753.229 35.4 753.989 35.4C755.149 35.4 756.229 34.36 757.269 32.24C757.589 31.64 758.029 31.48 758.629 31.72C759.229 31.92 759.429 32.36 759.189 33C758.749 34.08 758.029 35.08 757.109 36.04C756.189 37 755.149 37.48 753.989 37.48C752.509 37.48 751.549 37 751.029 36.08C750.149 37 749.109 37.48 747.949 37.48C745.749 37.48 744.429 36.4 744.429 34.44C744.429 33.92 744.629 33.16 745.029 32.24L749.509 22.44C750.189 21 752.149 21.8 751.469 23.32ZM765.095 21.52C767.055 21.52 768.375 22.56 768.375 24.28C768.375 25.04 768.135 25.88 767.655 26.88C767.295 27.56 766.815 27.84 766.135 27.72C765.575 27.6 765.295 27.28 765.335 26.72C765.335 26.52 765.415 26.32 765.535 26.08C766.295 24.6 766.415 23.6 765.095 23.6C764.575 23.6 764.095 23.8 763.655 24.24C762.735 25.08 762.615 25.56 761.975 26.88L759.895 31.28C759.535 32.04 759.335 32.76 759.335 33.4C759.335 34.72 760.135 35.4 761.735 35.4C763.815 35.4 765.695 33.72 766.535 32.16C766.895 31.56 767.335 31.36 767.895 31.64C768.495 31.88 768.655 32.32 768.375 33C767.855 34.2 766.975 35.24 765.735 36.16C764.495 37.04 763.175 37.48 761.735 37.48C758.975 37.48 757.055 36.12 757.055 33.6C757.055 32.76 757.335 31.68 757.935 30.44L760.095 25.88C761.455 22.96 763.135 21.52 765.095 21.52ZM775.153 23.72L774.633 23.8H773.473C772.953 23.8 772.553 24.04 772.353 24.52L768.513 33.04C767.993 34.28 768.273 35.4 769.593 35.4C770.433 35.4 771.153 35 771.793 34.08C772.433 33.16 772.433 33.04 772.873 32.24C773.193 31.64 773.633 31.48 774.233 31.72C774.833 31.92 775.033 32.36 774.793 33C774.353 34 773.673 34.96 772.713 35.92C771.793 36.84 770.753 37.36 769.593 37.48C767.353 37.68 765.953 36.52 765.953 34.48C765.953 33.88 766.153 33.12 766.553 32.24L770.113 24.52C770.313 24.04 770.233 23.8 769.953 23.8C769.353 23.8 769.033 23.52 768.993 23C768.953 22.44 769.233 22.04 769.753 21.84C769.913 21.76 770.113 21.72 770.313 21.72H770.473C771.033 21.72 771.393 21.48 771.593 21L773.113 17.8C773.793 16.36 775.913 16.92 775.073 18.64L773.953 21C773.753 21.48 773.913 21.72 774.433 21.72H774.993C775.553 21.72 775.873 22 775.913 22.52C775.953 23.12 775.713 23.52 775.153 23.72ZM772.44 37.24C771.92 37.04 771.4 36.64 770.88 36.08C770.04 35.16 771.36 33.56 772.52 34.6C772.72 34.88 773.04 35.08 773.48 35.24C773.8 35.36 774.12 35.4 774.48 35.4C776.88 35.4 778.76 33.4 778.96 30.84C779.04 29.84 778.8 28.72 778.24 27.44C777.72 26.44 777.84 26.48 777.36 27.44C777 28.12 776.56 29.12 775.96 30.44C775.4 31.76 775 32.6 774.8 33.04C774.12 34.48 772.2 33.64 772.88 32.2C773.4 31.16 775.2 27.24 778.24 20.44C778.92 18.92 781 19.56 780.32 21.24L780.12 21.68C779.88 22.28 779.72 22.8 779.68 23.24C779.6 23.96 779.84 25.2 780.4 26.92C780.92 28.64 781.16 29.96 781.12 30.88C781 32.68 780.28 34.24 778.96 35.56C777.68 36.88 776.16 37.56 774.36 37.56C773.64 37.56 773 37.44 772.44 37.24ZM779.72 37.48C778.36 37.48 778.36 35.4 779.72 35.4C780.56 35.4 781.28 35 781.92 34.08C782.56 33.16 782.56 33.04 783 32.24C783.32 31.64 783.76 31.48 784.36 31.72C784.96 31.92 785.16 32.36 784.92 33C784.48 34.08 783.76 35.08 782.84 36.04C781.92 37 780.88 37.48 779.72 37.48Z" fill="black"/>
</svg>
