<svg width="1362" height="57" viewBox="0 0 1362 57" fill="none" xmlns="http://www.w3.org/2000/svg">
<rect y="27" width="114" height="2" fill="black"/>
<rect x="424" y="27" width="114" height="2" fill="black"/>
<rect x="825" y="27" width="114" height="2" fill="black"/>
<rect x="1248" y="27" width="114" height="2" fill="black"/>
<circle cx="306" cy="30" r="6" fill="#FD5001"/>
<circle cx="269" cy="29" r="6" fill="#FD5001"/>
<circle cx="232" cy="29" r="6" fill="#FD5001"/>
<circle cx="1057" cy="28" r="6" fill="#FD5001"/>
<circle cx="1094" cy="28" r="6" fill="#FD5001"/>
<circle cx="1131" cy="28" r="6" fill="#FD5001"/>
<path d="M635.96 41.32C632.56 41.32 629.68 40.28 627.32 38.16C625 36.08 623.76 33.36 623.64 30.04C623.52 26.92 624.52 24.16 626.68 21.8C628.88 19.44 631.64 18.24 635 18.24C637.76 18.24 639.88 18.96 641.36 20.44C642.84 21.92 643.6 23.68 643.6 25.8C643.6 26.72 643.28 27.76 642.68 28.84C642.08 29.92 641.32 30.72 640.4 31.24C638.96 32.12 637.96 30.32 639.24 29.52C640.72 28.56 641.44 27.32 641.44 25.8C641.44 22.76 639.08 20.4 634.92 20.4C632.24 20.4 630 21.36 628.24 23.28C626.48 25.2 625.68 27.44 625.8 30.04C625.92 32.68 626.96 34.88 628.92 36.6C630.92 38.32 633.28 39.16 635.96 39.16C637.84 39.16 639.64 38.72 641.36 37.88C643.08 37.04 644.56 35.72 645.72 33.96C646.92 32.2 647.52 30.2 647.52 27.92C647.52 26.72 647.12 24.88 646.32 22.44C645.48 19.76 645.04 17.68 645.04 16.2C645.04 14.04 645.76 12.32 647.24 11C648.72 9.68 650.36 9.04 652.08 9.04C653.48 9.04 654.76 9.48 655.84 10.32C656.92 11.16 657.48 12.36 657.48 13.88C657.48 14.92 657.08 15.92 656.28 16.84C655.48 17.76 654.44 18.24 653.16 18.28C651.52 18.28 651.72 16.2 653.16 16.2C654.48 16.08 655.32 14.96 655.32 13.88C655.32 12.28 654 11.12 652.12 11.12C650.96 11.12 649.84 11.6 648.76 12.52C647.72 13.44 647.2 14.68 647.2 16.2C647.2 17.44 647.6 19.24 648.4 21.64C649.24 24.24 649.68 26.36 649.68 27.92C649.68 32.04 647.92 35.68 645.24 37.88C642.56 40.08 639.28 41.32 635.96 41.32ZM658.87 21.52C660.83 21.52 661.95 22.52 661.95 24.24C661.95 24.84 661.83 25.4 661.63 25.96C660.43 29.12 658.55 30.72 655.99 30.72C655.75 30.72 655.35 30.68 654.83 30.56C654.31 30.4 653.95 30.56 653.75 31.04C653.31 32.12 653.11 32.92 653.11 33.4C653.11 34.68 653.91 35.36 655.51 35.4C657.59 35.4 659.47 33.72 660.31 32.16C661.07 30.72 662.87 31.64 662.19 33C661.59 34.2 660.71 35.24 659.47 36.16C658.23 37.04 656.91 37.48 655.51 37.48C652.75 37.48 650.83 36.12 650.83 33.6C650.83 32.76 651.11 31.68 651.71 30.44L653.87 25.88C655.23 22.96 656.91 21.52 658.87 21.52ZM659.31 25.76C659.87 24.44 659.71 23.72 658.87 23.6C657.79 23.44 656.83 24.36 655.99 26.32L655.47 27.48C655.19 28.16 655.47 28.52 656.27 28.52C657.51 28.52 658.55 27.6 659.31 25.76ZM668.167 21.52C670.127 21.52 671.247 22.52 671.247 24.24C671.247 24.84 671.127 25.4 670.927 25.96C669.727 29.12 667.847 30.72 665.287 30.72C665.047 30.72 664.647 30.68 664.127 30.56C663.607 30.4 663.247 30.56 663.047 31.04C662.607 32.12 662.407 32.92 662.407 33.4C662.407 34.68 663.207 35.36 664.807 35.4C666.887 35.4 668.767 33.72 669.607 32.16C670.367 30.72 672.167 31.64 671.487 33C670.887 34.2 670.007 35.24 668.767 36.16C667.527 37.04 666.207 37.48 664.807 37.48C662.047 37.48 660.127 36.12 660.127 33.6C660.127 32.76 660.407 31.68 661.007 30.44L663.167 25.88C664.527 22.96 666.207 21.52 668.167 21.52ZM668.607 25.76C669.167 24.44 669.007 23.72 668.167 23.6C667.087 23.44 666.127 24.36 665.287 26.32L664.767 27.48C664.487 28.16 664.767 28.52 665.567 28.52C666.807 28.52 667.847 27.6 668.607 25.76ZM688.04 21.4L688.72 19.92L689.04 19.2C689.64 17.84 689.92 16.52 689.92 15.28C689.92 13.56 689.28 12.2 687.96 11.12C686.68 10.04 685.12 9.48 683.32 9.48C681.68 9.48 680.16 10.04 678.84 11.12C677.52 12.2 676.84 13.6 676.84 15.24C676.84 17.76 678.68 19.76 681.24 19.76C682.68 19.76 683.64 19.2 684.12 18.12C684.72 16.52 686.76 17.36 686.24 18.8C685.48 20.76 683.52 21.84 681.24 21.84C679.44 21.84 677.88 21.2 676.6 19.92C675.36 18.64 674.72 17.08 674.72 15.2C674.72 13.04 675.6 11.2 677.32 9.68C679.08 8.12 681.08 7.36 683.36 7.36C685.64 7.36 687.64 8.08 689.4 9.56C691.2 11.04 692.08 12.92 692.08 15.2C692.08 15.6 692.08 15.92 692.04 16.12C692.4 15.6 692.88 15.12 693.4 14.6C694.88 13.12 697.16 12.16 698.64 12.16C700.72 12.16 701.96 13.4 702.28 15.2C702.28 15.24 702.32 15.32 702.32 15.36C702.36 15.6 702.52 15.6 702.8 15.32C704.6 13.4 707.08 12.16 708.8 12.16C711.4 12.16 712.76 13.96 712.76 16.2C712.76 17.08 712.6 17.84 712.28 18.48L703.76 36.92C703.48 37.68 703.36 38.12 703.36 38.32C703.36 38.6 703.4 38.76 703.44 38.8C704.04 39.32 704.12 39.88 703.72 40.48C703.36 41 702.96 41.16 702.48 40.96L702.2 40.8C701.44 40.28 701.04 39.48 701.04 38.32C701.04 37.72 701.24 36.92 701.64 35.96L709.8 18.4C710.12 17.64 710.28 17 710.28 16.48C710.28 15.36 709.56 14.56 708.24 14.56C705.84 14.56 703 16.68 701.24 20.4L693.68 36.8C693.36 37.4 692.92 37.72 692.32 37.72C691.48 37.72 690.96 37.08 691.4 36.08L699.64 18.4C700 17.6 700.2 16.96 700.2 16.52C700.2 15.36 699.44 14.56 698.36 14.56C695.8 14.56 692.72 16.96 690.52 21.44L690.2 22.12L683.52 36.8C683.2 37.4 682.76 37.72 682.16 37.72C681.36 37.72 680.8 37.04 681.24 36.08L688.04 21.4ZM712.465 37.48C710.265 37.48 708.945 36.4 708.945 34.44C708.945 33.76 709.145 33 709.505 32.2L712.505 25.88C713.905 22.96 715.625 21.52 717.665 21.52C719.865 21.52 721.185 22.6 721.185 24.56C721.185 25.28 720.985 26.04 720.585 26.84L717.625 33.12C716.225 36.04 714.505 37.48 712.465 37.48ZM711.105 34.44C711.105 35.08 711.545 35.4 712.465 35.4C713.625 35.4 714.745 34.32 715.785 32.12L718.665 25.88C719.345 24.36 718.985 23.6 717.665 23.6C716.825 23.6 716.065 24.04 715.425 25C714.825 25.96 714.825 26 714.345 26.96L711.465 33.12C711.225 33.6 711.105 34.04 711.105 34.44ZM725.568 32.16L728.568 25.72C728.808 25.12 728.928 24.68 728.928 24.4C728.928 24 728.608 23.72 728.008 23.52C727.408 23.32 727.048 23.04 727.008 22.6L722.128 33.08C721.488 34.48 721.168 35.8 721.168 37.04C721.168 38.32 721.648 39.48 722.328 39.48C723.848 39.48 723.928 41.64 722.328 41.64C720.207 41.64 719.007 39.6 719.007 37.04C719.007 35.72 719.407 34.12 720.247 32.2L726.328 18.88C727.008 17.28 729.088 18.16 728.328 19.76C727.688 20.92 728.408 21.52 729.248 21.68C730.168 21.8 731.208 22.56 731.208 24.12C731.208 24.56 731.008 25.32 730.608 26.44L727.528 33.04C727.128 34 726.768 35.4 728.288 35.4C729.128 35.4 729.848 35 730.488 34.08C731.128 33.16 731.128 33.04 731.568 32.24C731.888 31.64 732.328 31.48 732.928 31.72C733.528 31.92 733.728 32.36 733.488 33C733.048 34.08 732.328 35.08 731.408 36.04C730.488 37 729.448 37.48 728.288 37.48C726.088 37.48 724.968 36.48 724.968 34.48C724.968 33.72 725.168 32.96 725.568 32.16ZM739.456 21.52C741.416 21.52 742.536 22.52 742.536 24.24C742.536 24.84 742.416 25.4 742.216 25.96C741.016 29.12 739.136 30.72 736.576 30.72C736.336 30.72 735.936 30.68 735.416 30.56C734.896 30.4 734.536 30.56 734.336 31.04C733.896 32.12 733.696 32.92 733.696 33.4C733.696 34.68 734.496 35.36 736.096 35.4C738.176 35.4 740.056 33.72 740.896 32.16C741.656 30.72 743.456 31.64 742.776 33C742.176 34.2 741.296 35.24 740.056 36.16C738.816 37.04 737.496 37.48 736.096 37.48C733.336 37.48 731.416 36.12 731.416 33.6C731.416 32.76 731.696 31.68 732.296 30.44L734.456 25.88C735.816 22.96 737.496 21.52 739.456 21.52ZM739.896 25.76C740.456 24.44 740.296 23.72 739.456 23.6C738.376 23.44 737.416 24.36 736.576 26.32L736.056 27.48C735.776 28.16 736.056 28.52 736.856 28.52C738.096 28.52 739.136 27.6 739.896 25.76Z" fill="black"/>
</svg>
