<svg width="327" height="100" viewBox="0 0 327 100" fill="none" xmlns="http://www.w3.org/2000/svg">
<path d="M30.7 86.1C21.6 86.1 14.2 82.8 8.7 76.3C3.2 69.8 0.5 62 0.8 52.9C0.9 47.8 2.2 42.4 4.7 36.9C7.2 31.3 10.5 26.2 14.6 21.5C18.7 16.8 23.8 12.9 29.9 9.9C36 6.79999 42.3 5.3 49 5.3C56 5.3 61.5 7.1 65.5 10.6C69.5 14.1 71.5 18.1 71.6 22.8C71.5 27 69.8 30.8 66.7 34.1C63.6 37.4 59.8 39 55.3 39C46.4 39 42.5 33.8 42.8 27.4C42.8 25.6 43.5 23.9 44.8 22.2C47.9 18.5 51.7 21.1 49.6 24.8C48.7 26.1 48.2 27.1 48.2 28C48.1 31.1 50.5 33.7 55.6 33.7C58.5 33.7 61 32.6 63.1 30.5C65.2 28.4 66.2 26 66.3 23.3C66.4 20 64.9 17 61.8 14.5C58.7 11.9 54.4 10.6 48.8 10.6C36.9 10.6 25.6 16.6 18.4 25C11.2 33.3 6.6 43.7 6.3 52.8C6.1 60 8.3 66.5 12.8 72.2C17.4 77.9 23.4 80.7 30.9 80.7C36.7 80.7 41.6 78.9 45.7 75.4C49.8 71.9 52.1 67.9 52.6 63.4C53 60.3 52.3 57.6 50.4 55.3C48.5 53 46 51.8 42.8 51.8C37.3 51.7 33.7 54.7 33.4 58.2C33.2 62.5 28.1 62.5 28.3 58.2C28.4 55.1 29.9 52.4 32.8 50C35.7 47.5 39.3 46.3 43.6 46.4C48.3 46.4 52.1 48.2 54.8 51.8C57.5 55.3 58.6 59.4 57.9 63.9C57 69.6 54.1 74.8 49 79.3C43.9 83.8 37.8 86.1 30.7 86.1ZM71.0773 74.2C65.5773 74.2 62.2773 71.5 62.2773 66.6C62.2773 64.9 62.7773 63 63.6773 61L71.1773 45.2C74.6773 37.9 78.9773 34.3 84.0773 34.3C89.5773 34.3 92.8773 37 92.8773 41.9C92.8773 43.7 92.3773 45.6 91.3773 47.6L83.9773 63.3C80.4773 70.6 76.1773 74.2 71.0773 74.2ZM67.6773 66.6C67.6773 68.2 68.7773 69 71.0773 69C73.9773 69 76.7773 66.3 79.3773 60.8L86.5773 45.2C88.2773 41.4 87.3773 39.5 84.0773 39.5C81.9773 39.5 80.0773 40.6 78.4773 43C76.9773 45.4 76.9773 45.5 75.7773 47.9L68.5773 63.3C67.9773 64.5 67.6773 65.6 67.6773 66.6ZM106.133 60.9L113.433 45.2C114.033 43.7 114.333 42.6 114.333 41.9C114.333 40.3 113.333 39.5 111.433 39.5C107.833 39.5 104.433 43.2 103.133 46.3L95.5328 63.1C94.0328 66.6 89.4328 74.2 82.3328 74.2C79.1328 74.2 79.3328 69 82.3328 69C85.3328 69 88.0328 66.4 90.5328 61.1L101.833 36.5C102.433 35.3 103.333 34.7 104.433 34.7C105.833 34.7 106.633 35.4 106.733 36.7C107.533 35.6 109.633 34.4 111.533 34.3C116.333 33.9 119.733 37 119.733 41.9C119.733 43.7 119.233 45.6 118.233 47.6L111.033 63.1C110.333 64.5 110.033 65.7 110.033 66.7C110.033 68.2 111.033 69 112.933 69C115.833 69 118.533 66.4 121.133 61.1C121.933 59.6 123.033 59.2 124.533 59.8C126.033 60.3 126.533 61.4 125.933 63C124.833 65.7 123.033 68.2 120.733 70.6C118.433 73 115.833 74.2 112.933 74.2C107.433 74.2 104.633 71.7 104.633 66.7C104.633 65 105.133 63 106.133 60.9ZM142.699 39.8L141.399 40H138.499C137.199 40 136.199 40.6 135.699 41.8L126.099 63.1C124.799 66.2 125.499 69 128.799 69C130.899 69 132.699 68 134.299 65.7C135.899 63.4 135.899 63.1 136.999 61.1C137.799 59.6 138.899 59.2 140.399 59.8C141.899 60.3 142.399 61.4 141.799 63C140.699 65.5 138.999 67.9 136.599 70.3C134.299 72.6 131.699 73.9 128.799 74.2C123.199 74.7 119.699 71.8 119.699 66.7C119.699 65.2 120.199 63.3 121.199 61.1L130.099 41.8C130.599 40.6 130.399 40 129.699 40C128.199 40 127.399 39.3 127.299 38C127.199 36.6 127.899 35.6 129.199 35.1C129.599 34.9 130.099 34.8 130.599 34.8H130.999C132.399 34.8 133.299 34.2 133.799 33L137.599 25C139.299 21.4 144.599 22.8 142.499 27.1L139.699 33C139.199 34.2 139.599 34.8 140.899 34.8H142.299C143.699 34.8 144.499 35.5 144.599 36.8C144.699 38.3 144.099 39.3 142.699 39.8ZM159.517 74.2C155.817 74.2 153.417 73 152.117 70.7C149.917 73 147.317 74.2 144.417 74.2C138.917 74.2 135.617 71.5 135.617 66.6C135.617 64.9 136.117 63 137.017 61L144.517 45.2C148.017 37.9 152.317 34.3 157.417 34.3C160.117 34.3 162.917 35.5 163.817 37.5C164.417 35.9 165.517 35.2 167.017 35.3C168.317 35.5 168.917 36.2 168.917 37.5C168.917 37.8 168.817 38.2 168.717 38.6L157.617 63.1C156.917 64.5 156.617 65.7 156.617 66.7C156.617 68.2 157.617 69 159.517 69C161.617 69 163.417 68 165.017 65.7C166.617 63.4 166.617 63.1 167.717 61.1C168.517 59.6 169.617 59.2 171.117 59.8C172.617 60.3 173.117 61.4 172.517 63C171.417 65.7 169.617 68.2 167.317 70.6C165.017 73 162.417 74.2 159.517 74.2ZM152.017 62.2L159.917 45.4C161.217 42.8 161.217 39.5 157.417 39.5C155.317 39.5 153.417 40.6 151.817 43C150.317 45.4 150.317 45.5 149.117 47.9L141.917 63.3C140.417 65.8 141.117 69 144.417 69C147.717 69 150.517 65.5 152.017 62.2ZM187.281 34.3C192.181 34.3 195.481 36.9 195.481 41.2C195.481 43.1 194.881 45.2 193.681 47.7C192.781 49.4 191.581 50.1 189.881 49.8C188.481 49.5 187.781 48.7 187.881 47.3C187.881 46.8 188.081 46.3 188.381 45.7C190.281 42 190.581 39.5 187.281 39.5C185.981 39.5 184.781 40 183.681 41.1C181.381 43.2 181.081 44.4 179.481 47.7L174.281 58.7C173.381 60.6 172.881 62.4 172.881 64C172.881 67.3 174.881 69 178.881 69C184.081 69 188.781 64.8 190.881 60.9C191.781 59.4 192.881 58.9 194.281 59.6C195.781 60.2 196.181 61.3 195.481 63C194.181 66 191.981 68.6 188.881 70.9C185.781 73.1 182.481 74.2 178.881 74.2C171.981 74.2 167.181 70.8 167.181 64.5C167.181 62.4 167.881 59.7 169.381 56.6L174.781 45.2C178.181 37.9 182.381 34.3 187.281 34.3ZM212.426 39.8L211.126 40H208.226C206.926 40 205.926 40.6 205.426 41.8L195.826 63.1C194.526 66.2 195.226 69 198.526 69C200.626 69 202.426 68 204.026 65.7C205.626 63.4 205.626 63.1 206.726 61.1C207.526 59.6 208.626 59.2 210.126 59.8C211.626 60.3 212.126 61.4 211.526 63C210.426 65.5 208.726 67.9 206.326 70.3C204.026 72.6 201.426 73.9 198.526 74.2C192.926 74.7 189.426 71.8 189.426 66.7C189.426 65.2 189.926 63.3 190.926 61.1L199.826 41.8C200.326 40.6 200.126 40 199.426 40C197.926 40 197.126 39.3 197.026 38C196.926 36.6 197.626 35.6 198.926 35.1C199.326 34.9 199.826 34.8 200.326 34.8H200.726C202.126 34.8 203.026 34.2 203.526 33L207.326 25C209.026 21.4 214.326 22.8 212.226 27.1L209.426 33C208.926 34.2 209.326 34.8 210.626 34.8H212.026C213.426 34.8 214.226 35.5 214.326 36.8C214.426 38.3 213.826 39.3 212.426 39.8ZM291.085 99.6C279.885 99.6 274.285 91.3 274.285 74.7C274.285 73.8 274.185 73.3 274.285 72.4C268.485 77.3 262.885 79.7 257.485 79.7C248.385 79.7 243.985 74.1 243.985 66.4C243.985 63.3 244.785 60 246.485 56.3L257.185 33.3C260.585 25.9 260.985 19.5 258.385 14.2C255.785 8.9 250.885 6.2 243.685 6.2C239.585 6.2 235.885 7.6 232.585 10.5C229.285 13.3 227.685 16.9 227.685 21.2C227.685 27.9 231.685 33.1 237.685 33.1C241.385 33.1 244.685 31.3 245.885 28.4C247.585 24.2 252.385 26.4 251.185 30.1C249.485 35.4 243.985 38.3 237.685 38.3C233.485 38.3 229.885 36.6 226.885 33.3C223.885 30 222.385 25.9 222.385 21.1C222.385 15.6 224.485 10.8 228.785 6.9C233.085 2.9 238.085 0.899998 243.785 0.899998C252.685 0.899998 258.985 4.3 262.685 11.1C266.385 17.8 266.085 26 261.785 35.5L251.085 58.6C249.885 61.2 249.285 63.8 249.285 66.5C249.285 71.8 251.985 74.4 257.485 74.4C262.685 74.4 268.485 71.3 274.885 65C275.585 59.1 276.385 54.8 277.185 52.3C283.685 30.6 289.585 17.5 296.085 17.5C299.185 17.5 301.285 20.8 301.285 24.8C301.285 30.7 299.185 37.7 294.985 45.8C290.885 53.9 285.785 61 279.885 67.2C279.685 69.2 279.585 71.4 279.585 73.7C279.585 79.6 280.485 84.5 282.285 88.4C284.085 92.3 287.085 94.2 291.185 94.2C298.385 94.2 301.885 89.6 302.185 84.9C302.285 83.6 301.985 82.5 301.285 81.6C298.785 78.2 303.185 75.1 305.585 78.5C306.885 80.1 307.585 82.2 307.485 84.7C307.385 88.3 305.885 91.7 303.085 94.8C300.385 98 296.385 99.6 291.085 99.6ZM282.385 53.4C281.285 57 281.585 57.3 283.885 54.1C289.785 45.9 293.685 38.4 295.385 31.7C295.785 30.7 297.385 23.2 295.485 23.2C294.085 23.2 292.185 26.2 289.685 32.1C287.285 38 284.885 45.1 282.385 53.4ZM294.902 73.6C293.602 73.1 292.302 72.1 291.002 70.7C288.902 68.4 292.202 64.4 295.102 67C295.602 67.7 296.402 68.2 297.502 68.6C298.302 68.9 299.102 69 300.002 69C306.002 69 310.702 64 311.202 57.6C311.402 55.1 310.802 52.3 309.402 49.1C308.102 46.6 308.402 46.7 307.202 49.1C306.302 50.8 305.202 53.3 303.702 56.6C302.302 59.9 301.302 62 300.802 63.1C299.102 66.7 294.302 64.6 296.002 61C297.302 58.4 301.802 48.6 309.402 31.6C311.102 27.8 316.302 29.4 314.602 33.6L314.102 34.7C313.502 36.2 313.102 37.5 313.002 38.6C312.802 40.4 313.402 43.5 314.802 47.8C316.102 52.1 316.702 55.4 316.602 57.7C316.302 62.2 314.502 66.1 311.202 69.4C308.002 72.7 304.202 74.4 299.702 74.4C297.902 74.4 296.302 74.1 294.902 73.6ZM313.102 74.2C309.702 74.2 309.702 69 313.102 69C315.202 69 317.002 68 318.602 65.7C320.202 63.4 320.202 63.1 321.302 61.1C322.102 59.6 323.202 59.2 324.702 59.8C326.202 60.3 326.702 61.4 326.102 63C325.002 65.7 323.202 68.2 320.902 70.6C318.602 73 316.002 74.2 313.102 74.2Z" fill="white"/>
</svg>
